Coordinates
version=1
nRows=16
nColumns=18
inDegrees=yes

Units are S.I. units (second, meters, Newtons, ...)
Angles are in degrees.

endheader
time	pelvis_tilt	pelvis_list	pelvis_rotation	pelvis_tx	pelvis_ty	pelvis_tz	hip_flexion_r	hip_adduction_r	hip_rotation_r	knee_angle_r	ankle_angle_r	hip_flexion_l	hip_adduction_l	hip_rotation_l	knee_angle_l	ankle_angle_l	lumbar_extension
      1.77000000	     -2.90519644	     -4.04128331	     -0.74782607	      0.28819326	      0.80672153	     -0.34821701	     11.89929702	     12.82580270	      0.00000000	    -29.85509916	     18.45001088	     14.99550205	     -6.59810522	      0.00000000	    -58.61422427	     15.31296226	     -5.00000214
      1.78000000	     -3.02248235	     -4.00280899	     -0.66917985	      0.29660509	      0.80787775	     -0.34875497	     11.16884394	     12.71177578	      0.00000000	    -29.43259115	     18.24527921	     16.59756081	     -6.74563083	      0.00000000	    -58.04669471	     16.59355280	     -5.00000214
      1.79000000	     -3.15071731	     -3.94813244	     -0.59728731	      0.30504385	      0.80906971	     -0.34939216	     10.38456564	     12.57135624	      0.00000000	    -28.88191661	     18.06797123	     18.09877311	     -6.82856263	      0.00000000	    -57.13729031	     17.56599493	     -5.00000214
      1.80000000	     -3.36245901	     -3.83847341	     -0.59225951	      0.31316381	      0.81015874	     -0.35018229	      9.82934808	     12.35565628	      0.00000000	    -28.57771211	     18.04137557	     19.58075976	     -6.77269378	      0.00000000	    -55.86465150	     17.82423828	     -5.00000214
      1.81000000	     -3.38061035	     -3.69843770	     -0.46626084	      0.32222627	      0.81156106	     -0.35127682	      8.64615625	     12.07581207	      0.00000000	    -27.58967712	     17.60358436	     20.59426797	     -6.62525945	      0.00000000	    -54.12919257	     19.36028335	     -5.00000214
      1.82000000	     -3.53722416	     -3.55691720	     -0.39083585	      0.33076782	      0.81268095	     -0.35232136	      7.78398927	     11.80534409	      0.00000000	    -26.87653409	     17.23219678	     21.70600751	     -6.44556676	      0.00000000	    -52.13132389	     20.18959169	     -5.00000214
      1.83000000	     -3.71644307	     -3.36544165	     -0.34287691	      0.33930057	      0.81369915	     -0.35359584	      6.96608068	     11.45461541	      0.00000000	    -26.21785176	     17.00746287	     22.66925726	     -6.14714107	      0.00000000	    -49.75152209	     20.66856757	     -5.00000214
      1.84000000	     -3.85465354	     -3.23964390	     -0.22547468	      0.34807275	      0.81462393	     -0.35473348	      5.96983104	     11.20382409	      0.00000000	    -25.31665047	     16.59751343	     23.44349138	     -5.91617281	      0.00000000	    -47.07295686	     21.20430929	     -5.00000214
      1.85000000	     -4.03666065	     -3.05601761	     -0.15823194	      0.35674654	      0.81536269	     -0.35607010	      5.11815249	     10.86458788	      0.00000000	    -24.61188856	     16.32861670	     24.04534180	     -5.56469844	      0.00000000	    -43.97926895	     21.43000361	     -5.00000214
      1.86000000	     -4.19091618	     -2.91515680	     -0.09175210	      0.36564504	      0.81598630	     -0.35729722	      4.12882726	     10.58485940	      0.00000000	    -23.71994374	     15.91762268	     24.42790335	     -5.26382318	      0.00000000	    -40.58447647	     21.48080303	     -5.00000214
      1.87000000	     -4.40904565	     -2.75117633	     -0.12442460	      0.37430423	      0.81631140	     -0.35853346	      3.38522791	     10.26783592	      0.00000000	    -23.15225299	     15.74045277	     24.65435116	     -4.91888986	      0.00000000	    -36.82726706	     21.36069577	     -5.00000214
      1.88000000	     -4.52491255	     -2.61634773	     -0.14214938	      0.38349326	      0.81663016	     -0.35974350	      2.31830854	      9.98215373	      0.00000000	    -22.22793548	     15.43203674	     24.46854470	     -4.60396347	      0.00000000	    -32.67418820	     20.91708056	     -5.00000214
      1.89000000	     -4.62591711	     -2.52245820	     -0.24471269	      0.39277683	      0.81672742	     -0.36078003	      1.24373490	      9.74707971	      0.00000000	    -21.33221844	     15.07291778	     24.02857590	     -4.35651527	      0.00000000	    -28.24965988	     20.18971363	     -5.00000214
      1.90000000	     -4.65909588	     -2.43549968	     -0.42692620	      0.40240148	      0.81671279	     -0.36175339	     -0.01138457	      9.50317911	      0.00000000	    -20.26630875	     14.48957746	     23.22578048	     -4.12913474	      0.00000000	    -23.53693213	     18.88206054	     -5.00000214
      1.91000000	     -4.63858409	     -2.39209517	     -0.73275984	      0.41223696	      0.81638351	     -0.36248804	     -1.24866685	      9.30108155	      0.00000000	    -19.40043051	     14.15101171	     22.13107121	     -3.98646872	      0.00000000	    -18.67167056	     17.53275073	     -5.00000214
      1.92000000	     -4.53654024	     -2.34256702	     -1.13032816	      0.42244099	      0.81581832	     -0.36321687	     -2.55918875	      9.06303675	      0.00000000	    -18.62597429	     13.94332017	     20.72780986	     -3.84735515	      0.00000000	    -13.75006794	     16.13596261	     -5.00000214
